<svg width="68" height="68" viewBox="0 0 68 68" fill="none" xmlns="http://www.w3.org/2000/svg">
<g filter="url(#filter0_d_144_2419)">
<rect x="2" y="1" width="64" height="64" rx="32" fill="#F6ECE6" shape-rendering="crispEdges"/>
<path d="M34.0001 46.3334C32.1556 46.3334 30.4223 45.9834 28.8001 45.2834C27.1779 44.5834 25.7667 43.6334 24.5667 42.4334C23.3667 41.2334 22.4167 39.8222 21.7167 38.2C21.0167 36.5778 20.6667 34.8445 20.6667 33H23.3334C23.3334 34.4667 23.6112 35.85 24.1667 37.15C24.7223 38.45 25.4834 39.5834 26.4501 40.55C27.4167 41.5167 28.5501 42.2834 29.8501 42.85C31.1501 43.4167 32.5334 43.7 34.0001 43.7C36.9779 43.7 39.5001 42.6667 41.5667 40.6C43.6334 38.5334 44.6667 36.0111 44.6667 33.0334C44.6667 30.0556 43.6334 27.5334 41.5667 25.4667C39.5001 23.4 36.9779 22.3667 34.0001 22.3667C32.0223 22.3667 30.2279 22.85 28.6167 23.8167C27.0056 24.7834 25.7334 26.0667 24.8001 27.6667H28.6667V30.3334H20.6667V22.3334H23.3334V25C24.5556 23.3778 26.089 22.0834 27.9334 21.1167C29.7779 20.15 31.8001 19.6667 34.0001 19.6667C35.8445 19.6667 37.5779 20.0167 39.2001 20.7167C40.8223 21.4167 42.2334 22.3667 43.4334 23.5667C44.6334 24.7667 45.5834 26.1778 46.2834 27.8C46.9834 29.4222 47.3334 31.1556 47.3334 33C47.3334 34.8445 46.9834 36.5778 46.2834 38.2C45.5834 39.8222 44.6334 41.2334 43.4334 42.4334C42.2334 43.6334 40.8223 44.5834 39.2001 45.2834C37.5779 45.9834 35.8445 46.3334 34.0001 46.3334ZM31.3334 38.3334C30.9556 38.3334 30.639 38.2056 30.3834 37.95C30.1279 37.6945 30.0001 37.3778 30.0001 37V33C30.0001 32.6222 30.1279 32.3056 30.3834 32.05C30.639 31.7945 30.9556 31.6667 31.3334 31.6667V30.3334C31.3334 29.6 31.5945 28.9722 32.1167 28.45C32.639 27.9278 33.2667 27.6667 34.0001 27.6667C34.7334 27.6667 35.3612 27.9278 35.8834 28.45C36.4056 28.9722 36.6667 29.6 36.6667 30.3334V31.6667C37.0445 31.6667 37.3612 31.7945 37.6167 32.05C37.8723 32.3056 38.0001 32.6222 38.0001 33V37C38.0001 37.3778 37.8723 37.6945 37.6167 37.95C37.3612 38.2056 37.0445 38.3334 36.6667 38.3334H31.3334ZM32.6667 31.6667H35.3334V30.3334C35.3334 29.9556 35.2056 29.6389 34.9501 29.3834C34.6945 29.1278 34.3779 29 34.0001 29C33.6223 29 33.3056 29.1278 33.0501 29.3834C32.7945 29.6389 32.6667 29.9556 32.6667 30.3334V31.6667Z" fill="#170F0A"/>
</g>
<defs>
<filter id="filter0_d_144_2419" x="0" y="0" width="68" height="68" filterUnits="userSpaceOnUse" color-interpolation-filters="sRGB">
<feFlood flood-opacity="0" result="BackgroundImageFix"/>
<feColorMatrix in="SourceAlpha" type="matrix" values="0 0 0 0 0 0 0 0 0 0 0 0 0 0 0 0 0 0 127 0" result="hardAlpha"/>
<feOffset dy="1"/>
<feGaussianBlur stdDeviation="1"/>
<feComposite in2="hardAlpha" operator="out"/>
<feColorMatrix type="matrix" values="0 0 0 0 0 0 0 0 0 0 0 0 0 0 0 0 0 0 0.05 0"/>
<feBlend mode="normal" in2="BackgroundImageFix" result="effect1_dropShadow_144_2419"/>
<feBlend mode="normal" in="SourceGraphic" in2="effect1_dropShadow_144_2419" result="shape"/>
</filter>
</defs>
</svg>
